HIERARCHY
ROOT RootJoint
{
    OFFSET   0.000000   0.000000   0.000000
    CHANNELS 6 Xposition Yposition Zposition Xrotation Yrotation Zrotation
    JOINT pelvis_lowerback
    {
        OFFSET   0.000000   0.093605   0.000000
        CHANNELS 3 Xrotation Yrotation Zrotation
        JOINT lowerback_torso
        {
            OFFSET   0.000000   0.100000   0.000000
            CHANNELS 3 Xrotation Yrotation Zrotation
            JOINT torso_head
            {
                OFFSET   0.000000   0.282350   0.000000
                CHANNELS 3 Xrotation Yrotation Zrotation
                End Site
                {
                    OFFSET   0.000000   0.192650   0.000000
                }
            }
            JOINT rTorso_Clavicle
            {
                OFFSET  -0.001000   0.157500   0.000000
                CHANNELS 3 Xrotation Yrotation Zrotation
                JOINT rShoulder
                {
                    OFFSET  -0.117647   0.000000   0.000000
                    CHANNELS 3 Xrotation Yrotation Zrotation
                    JOINT rElbow
                    {
                        OFFSET  -0.245000   0.000000   0.000000
                        CHANNELS 3 Xrotation Yrotation Zrotation
                        JOINT rWrist
                        {
                            OFFSET  -0.240000   0.000000   0.000000
                            CHANNELS 3 Xrotation Yrotation Zrotation
                            End Site
                            {
                                OFFSET  -0.116353  -0.002500   0.000000
                            }
                        }
                    }
                }
            }
            JOINT lTorso_Clavicle
            {
                OFFSET   0.001000   0.157500   0.000000
                CHANNELS 3 Xrotation Yrotation Zrotation
                JOINT lShoulder
                {
                    OFFSET   0.117647   0.000000   0.000000
                    CHANNELS 3 Xrotation Yrotation Zrotation
                    JOINT lElbow
                    {
                        OFFSET   0.245000   0.000000   0.000000
                        CHANNELS 3 Xrotation Yrotation Zrotation
                        JOINT lWrist
                        {
                            OFFSET   0.240000   0.000000   0.000000
                            CHANNELS 3 Xrotation Yrotation Zrotation
                            End Site
                            {
                                OFFSET   0.116353  -0.002500   0.000000
                            }
                        }
                    }
                }
            }
        }
    }
    JOINT rHip
    {
        OFFSET  -0.100000  -0.051395   0.000000
        CHANNELS 3 Xrotation Yrotation Zrotation
        JOINT rKnee
        {
            OFFSET   0.000000  -0.410000   0.000000
            CHANNELS 3 Xrotation Yrotation Zrotation
            JOINT rAnkle
            {
                OFFSET   0.000000  -0.390000   0.000000
                CHANNELS 3 Xrotation Yrotation Zrotation
                JOINT rToeJoint
                {
                    OFFSET   0.000000  -0.050000   0.130000
                    CHANNELS 3 Xrotation Yrotation Zrotation
                    End Site
                    {
                        OFFSET  -0.010000   0.002000   0.060000
                    }
                }
            }
        }
    }
    JOINT lHip
    {
        OFFSET   0.100000  -0.051395   0.000000
        CHANNELS 3 Xrotation Yrotation Zrotation
        JOINT lKnee
        {
            OFFSET   0.000000  -0.410000   0.000000
            CHANNELS 3 Xrotation Yrotation Zrotation
            JOINT lAnkle
            {
                OFFSET   0.000000  -0.390000   0.000000
                CHANNELS 3 Xrotation Yrotation Zrotation
                JOINT lToeJoint
                {
                    OFFSET   0.000000  -0.050000   0.130000
                    CHANNELS 3 Xrotation Yrotation Zrotation
                    End Site
                    {
                        OFFSET   0.010000   0.002000   0.060000
                    }
                }
            }
        }
    }
}
MOTION
Frames: 17
Frame Time:   0.008333
 -2.844902   0.919488   4.337881   6.912906  -8.020011  -0.510860   6.839347  -0.652222   1.287916  -1.195615  -0.743824   2.556276   3.769687   0.926723  -0.877777   0.164276  -8.406866 -15.054458  17.957410   8.632801  36.821926  -0.880760  87.399664   0.888209  -2.156325   6.524478   5.396078  -0.301851  -0.551927  15.293036  11.377091 -20.470041 -23.788567 -179.869023 -77.344465 -179.834207  -1.531542  -8.128261  -5.634882 -34.023700 -11.190656 -11.491260  55.762263  -0.006368  -0.002468   6.040641 -17.985402   7.771138  -2.805392   0.001254  -0.001151  -2.743725   7.849374   1.071099   4.430348  -0.001331   0.000879 -10.472030  10.827442  12.898505   2.118674  -0.000054  -0.000086
 -2.848210   0.919476   4.339241   6.934534  -8.174664  -0.617442   6.974362  -0.848199   1.452024  -1.453838  -0.792936   2.508856   3.700961   1.055109  -0.881296   0.077987  -8.485806 -14.608672  17.105750   8.524372  37.054222  -0.842829  87.660792   0.850404  -2.233912   6.578512   5.145812  -0.456644  -0.497648  14.969140  10.297139 -20.518793 -23.943179 -179.889145 -77.168842 -179.860912  -1.544589  -8.304450  -5.342352 -34.304418 -11.010919 -11.362496  53.641355  -0.005785  -0.002827   5.575263 -17.837726   7.699636  -2.835936   0.001212  -0.001062  -2.737727   8.031928   1.442549   4.570751  -0.001377   0.000771 -10.589885  10.884585  12.527962   2.094288  -0.000065  -0.000080
 -2.851660   0.919390   4.340677   6.981105  -8.383239  -0.693127   7.089961  -1.025219   1.560912  -1.722774  -0.827887   2.454510   3.620924   1.175218  -0.883849  -0.000944  -8.530048 -14.097932  16.296799   8.453269  37.321865  -0.802288  87.889672   0.809897  -2.304354   6.544099   4.857478  -0.596102  -0.458148  14.609469   9.279987 -20.563953 -24.117689 -179.906707 -77.037322 -179.883972  -1.540931  -8.327673  -4.957313 -34.593597 -10.837935 -11.252484  51.448459  -0.004744  -0.001980   5.131118 -17.694492   7.634430  -2.866192   0.001187  -0.000973  -2.733660   8.208363   1.788758   4.695808  -0.001388   0.000611 -10.715308  10.943966  12.181645   2.074978  -0.000065  -0.000064
 -2.855235   0.919230   4.342198   7.028922  -8.602971  -0.745365   7.201726  -1.194702   1.636634  -1.977415  -0.860483   2.392354   3.540411   1.286673  -0.889774  -0.068482  -8.559802 -13.576656  15.541283   8.401271  37.596322  -0.767971  88.104347   0.775505  -2.373497   6.505311   4.603882  -0.719221  -0.429420  14.248983   8.330180 -20.610508 -24.294454 -179.921445 -76.919869 -179.903194  -1.534017  -8.307616  -4.570996 -34.893486 -10.670832 -11.173935  49.343701  -0.003784  -0.000702   4.714112 -17.559869   7.574400  -2.897064   0.001164  -0.000889  -2.717822   8.385765   2.115231   4.817968  -0.001397   0.000471 -10.851346  11.014492  11.860543   2.062159  -0.000058  -0.000051
 -2.858941   0.919012   4.343811   7.074538  -8.815861  -0.785365   7.311469  -1.359007   1.694983  -2.212014  -0.894969   2.326806   3.463362   1.390287  -0.897661  -0.126527  -8.584445 -13.068557  14.838615   8.356888  37.864327  -0.739553  88.305483   0.746877  -2.441328   6.472108   4.387454  -0.828488  -0.408148  13.898901   7.444485 -20.657203 -24.467750 -179.933751 -76.810946 -179.919133  -1.527851  -8.282325  -4.209019 -35.197465 -10.509068 -11.116905  47.363213  -0.003105   0.000470   4.324246 -17.434008   7.518936  -2.928160   0.001134  -0.000812  -2.689925   8.556564   2.433223   4.937268  -0.001403   0.000359 -10.995675  11.086017  11.561637   2.055636  -0.000048  -0.000040
 -2.862779   0.918745   4.345515   7.119411  -9.014357  -0.818811   7.418450  -1.518366   1.743239  -2.427052  -0.932154   2.260758   3.390890   1.486741  -0.906219  -0.177106  -8.608202 -12.584438  14.185862   8.314445  38.119689  -0.716473  88.493089   0.723469  -2.507056   6.440552   4.197717  -0.926383  -0.391636  13.564586   6.618829 -20.702187 -24.634670 -179.944033 -76.709007 -179.932350  -1.523104  -8.260808  -3.874271 -35.501056 -10.352531 -11.074244  45.511475  -0.002702   0.001336   3.960182 -17.316505   7.467567  -2.959386   0.001096  -0.000742  -2.652186   8.717393   2.748985   5.051589  -0.001403   0.000275 -11.145930  11.154365  11.283545   2.055333  -0.000039  -0.000032
 -2.866753   0.918433   4.347312   7.165764  -9.195436  -0.847869   7.521617  -1.672340   1.784479  -2.624521  -0.971536   2.195422   3.323161   1.576598  -0.914803  -0.221795  -8.632752 -12.128855  13.579536   8.271474  38.359705  -0.698521  88.667593   0.705097  -2.570226   6.407311   4.025585  -1.014933  -0.377969  13.248638   5.849140 -20.744132 -24.793623 -179.952640 -76.613466 -179.943322  -1.519610  -8.243938  -3.564029 -35.801298 -10.201273 -11.042149  43.784027  -0.002508   0.001871   3.620340 -17.206851   7.419920  -2.990562   0.001051  -0.000681  -2.606928   8.867042   3.065287   5.159226  -0.001393   0.000215 -11.300272  11.217879  11.024087   2.060887  -0.000032  -0.000026
 -2.870890   0.918137   4.349192   7.257167  -9.473686  -0.872100   7.555889  -1.836489   1.823557  -2.851264  -0.994842   2.087895   3.224545   1.687149  -0.910471  -0.198309  -8.506152 -11.492437  12.783803   8.437217  38.635777  -0.354326  88.294391   0.357114  -2.568656   6.479884   3.752295  -1.020113  -0.400038  12.779914   5.047909 -20.730779 -25.049278 -179.975065 -77.022111 -179.966685  -1.477741  -8.504402  -3.185536 -35.952603 -10.187674 -10.905804  41.494169   0.000004   0.004971   3.306953 -17.064046   7.464147  -3.075091   0.001542  -0.000731  -2.595924   9.176444   3.412382   5.296730  -0.001485   0.000242 -11.652124  11.383910  10.690258   2.237025   0.000055   0.000264
 -2.875095   0.917682   4.351126   7.367510  -9.803537  -0.834301   7.578513  -1.976244   1.806360  -3.086257  -0.989547   1.957002   3.109057   1.788001  -0.911022  -0.180450  -8.320753 -10.818803  12.018350   8.631235  38.931025  -0.170653  87.915952   0.170285  -2.555614   6.383993   3.477729  -1.003114  -0.443022  12.279216   4.306372 -20.716188 -25.317284 -179.994108 -77.453466 -179.986002  -1.423031  -8.528135  -2.782233 -36.104304 -10.192781 -10.769464  39.222146   0.003070   0.008756   3.007806 -16.927862   7.506868  -3.155390   0.001920  -0.000709  -2.584314   9.479508   3.696786   5.434453  -0.001561   0.000192 -11.976317  11.547841  10.371761   2.389017   0.000096   0.000365
 -2.879362   0.917090   4.353137   7.483237 -10.144596  -0.752420   7.601158  -2.097251   1.758524  -3.309934  -0.969243   1.812335   2.993383   1.881423  -0.915689  -0.165694  -8.119721 -10.155007  11.294643   8.830582  39.228153  -0.073408  87.562975   0.070730  -2.543213   6.269562   3.236909  -0.974529  -0.492743  11.780471   3.619148 -20.706753 -25.584435 179.991510 -77.864074 179.999535  -1.367839  -8.480860  -2.406849 -36.253784 -10.205578 -10.636772  37.072828   0.005814   0.012060   2.727046 -16.800360   7.547288  -3.231214   0.002165  -0.000653  -2.567733   9.763175   3.935305   5.580529  -0.001646   0.000110 -12.269497  11.703237  10.071507   2.527415   0.000099   0.000373
 -2.883696   0.916384   4.355240   7.604206 -10.474725  -0.639798   7.624651  -2.205534   1.696113  -3.517397  -0.942423   1.662389   2.882729   1.968398  -0.922542  -0.153473  -7.918972  -9.519833  10.614707   9.023719  39.516854  -0.020490  87.235425   0.016223  -2.532982   6.167046   3.025976  -0.939681  -0.543964  11.297165   2.981574 -20.700238 -25.844145 179.981265 -78.248520 179.989211  -1.315685  -8.421312  -2.066402 -36.395017 -10.223276 -10.504935  35.063663   0.007976   0.014453   2.464602 -16.681388   7.585322  -3.302589   0.002297  -0.000585  -2.548230  10.028033   4.142747   5.731895  -0.001730   0.000031 -12.537015  11.849979   9.789101   2.654631   0.000073   0.000347
 -2.888099   0.915582   4.357440   7.733189 -10.782301  -0.503685   7.648241  -2.304822   1.627469  -3.708903  -0.913624   1.512491   2.778445   2.049490  -0.930304  -0.143571  -7.725555  -8.920891   9.977755   9.205328  39.792113   0.008243  86.930890  -0.013534  -2.524422   6.076163   2.835534  -0.901895  -0.594264  10.835901   2.389427 -20.694546 -26.092790 179.974400 -78.607185 179.982197  -1.266941  -8.363767  -1.756535 -36.525363 -10.244170 -10.373223  33.192325   0.009551   0.015891   2.219548 -16.570477   7.621001  -3.369689   0.002338  -0.000518  -2.528274  10.275400   4.327627   5.883456  -0.001799  -0.000026 -12.783326  11.988409   9.523815   2.771726   0.000028   0.000314
 -2.892573   0.914693   4.359742   7.872807 -11.061495  -0.348106   7.671240  -2.397147   1.557039  -3.885858  -0.885071   1.365739   2.680729   2.125144  -0.938293  -0.135793  -7.542542  -8.360562   9.381943   9.373387  40.051761   0.023136  86.647198  -0.029022  -2.516998   5.992943   2.658393  -0.863317  -0.642454  10.399791   1.838922 -20.688411 -26.328494 179.970203 -78.941568 179.977763  -1.221300  -8.310543  -1.471502 -36.643866 -10.267100 -10.242115  31.451592   0.010621   0.016491   1.990819 -16.467112   7.654414  -3.432663   0.002311  -0.000457  -2.509819  10.506469   4.494947   6.031173  -0.001846  -0.000056 -13.011639  12.118922   9.274776   2.879448  -0.000028   0.000284
 -2.897266   0.913870   4.362282   7.955742 -11.485767  -0.269320   7.647730  -2.501576   1.545775  -3.993935  -0.795563   1.215309   2.518643   2.168310  -0.920561  -0.076685  -7.122554  -7.708225   8.716674   9.825396  40.143145   0.035451  85.754051  -0.044421  -2.427193   6.051227   2.400275  -0.735091  -0.791109   9.871908   1.414008 -20.637017 -26.564865 179.953221 -79.902890 179.964339  -1.161526  -8.601695  -1.074997 -36.606347 -10.405835  -9.931166  29.597715   0.013317   0.019640   1.717757 -16.344327   7.725205  -3.581609   0.003084  -0.000288  -2.361550  10.847189   4.755600   6.099698  -0.001690  -0.000083 -13.279580  12.507591   8.924293   2.968811   0.000007   0.000421
 -2.902080   0.912952   4.364923   8.055336 -11.939016  -0.173563   7.611096  -2.589328   1.520509  -4.109765  -0.680802   1.062998   2.339711   2.203421  -0.900583  -0.038615  -6.644498  -7.071348   8.069117  10.287161  40.235772   0.036338  84.883156  -0.047462  -2.327225   5.897731   2.190043  -0.583701  -0.962292   9.331636   1.038093 -20.586739 -26.804287 179.939534 -80.864957 179.953972  -1.097578  -8.567341  -0.741554 -36.569873 -10.559010  -9.590950  27.845642   0.015522   0.022476   1.460004 -16.228601   7.792493  -3.729181   0.003659  -0.000072  -2.207870  11.173480   5.000238   6.160072  -0.001543  -0.000124 -13.535828  12.878353   8.594032   3.049707   0.000015   0.000466
 -2.907004   0.911925   4.367661   8.171665 -12.376733  -0.055079   7.570339  -2.663345   1.481705  -4.226778  -0.558912   0.907774   2.163751   2.235157  -0.881800  -0.015870  -6.166854  -6.467094   7.450062  10.735703  40.332998   0.032698  84.070983  -0.045057  -2.230971   5.721577   2.003204  -0.430918  -1.135467   8.806030   0.693932 -20.545182 -27.039787 179.929483 -81.772665 179.946370  -1.035963  -8.437077  -0.459297 -36.532299 -10.710306  -9.252645  26.212065   0.016906   0.024305   1.218996 -16.120709   7.855709  -3.867220   0.003979   0.000120  -2.060524  11.476838   5.224247   6.222311  -0.001434  -0.000163 -13.773309  13.225268   8.285745   3.122895   0.000003   0.000467
 -2.912036   0.910792   4.370500   8.305033 -12.780329   0.084326   7.527507  -2.728025   1.433423  -4.340468  -0.437701   0.751787   1.996181   2.264503  -0.864946  -0.003559  -5.706932  -5.900522   6.863900  11.162077  40.430917   0.027316  83.316071  -0.040195  -2.140090   5.564418   1.829312  -0.283437  -1.304123   8.304905   0.375756 -20.509898 -27.266397 179.922563 -82.620962 179.941004  -0.978077  -8.292347  -0.210975 -36.489690 -10.855524  -8.926114  24.692562   0.017557   0.025080   0.993943 -16.020289   7.914861  -3.995091   0.004092   0.000264  -1.923104  11.759386   5.431198   6.285788  -0.001352  -0.000189 -13.992744  13.549999   7.997374   3.189947  -0.000023   0.000452
